<svg xmlns="http://www.w3.org/2000/svg" width="16" height="16"><path fill="#4b4a50" d="M12.05 15.5A11.565 11.565 0 01.5 3.95 3.45 3.45 0 013.95.5c.194-.001.387.016.578.053.183.027.364.072.54.135a.75.75 0 01.487.562l1.028 4.5a.75.75 0 01-.195.69c-.098.105-.105.113-1.028.593A7.433 7.433 0 009.013 10.7c.487-.93.495-.937.6-1.035a.75.75 0 01.69-.195l4.5 1.028a.75.75 0 01.54.487 3.252 3.252 0 01.187 1.118 3.45 3.45 0 01-3.48 3.397zM3.95 2A1.957 1.957 0 002 3.95 10.057 10.057 0 0012.05 14 1.958 1.958 0 0014 12.05v-.247L10.52 11l-.217.413c-.338.652-.586 1.125-1.216.87a8.888 8.888 0 01-5.384-5.408c-.27-.585.24-.855.885-1.192L5 5.48 4.198 2z"/></svg>