<svg xmlns="http://www.w3.org/2000/svg" width="247" height="26"><path fill="#6e6e6e" d="M1.558 5.95H0v14.098h1.558zm17.082 0h1.82l4.786 10.781L30 5.95h1.857v14.098h-1.559V8.628l-5.03 11.288h-.08L20.159 8.65v11.398H18.64zm189.96 0h1.82l4.79 10.781 4.753-10.781h1.854v14.098h-1.559V8.628l-5.03 11.288h-.08l-5.03-11.266v11.398H208.6zm-161.78 0h5.17c3.117 0 5.168 1.693 5.168 4.51 0 3.042-2.487 4.615-5.426 4.615h-3.354v4.973H46.82zm4.973 7.674c2.288 0 3.789-1.25 3.789-3.141 0-2.013-1.48-3.064-3.71-3.064h-3.49v6.205zM107.1 5.95h5.937c1.699 0 3.059.522 3.926 1.41a3.974 3.974 0 0 1 1.079 2.818c0 2.336-1.58 3.706-3.749 4.11l4.231 5.76h-1.914l-3.987-5.477h-3.958v5.477h-1.558zm5.8 7.189c2.073 0 3.552-1.102 3.552-2.939 0-1.73-1.303-2.777-3.53-2.777h-4.257v5.716zm22.765-5.719h-4.635V5.95h10.849v1.47h-4.635v12.628h-1.58zm20.195-1.47h1.558v6.263h7.97V5.95h1.558v14.098h-1.558v-6.344h-7.97v6.344h-1.558zm25.43 7.052c0-3.887 2.86-7.292 7.063-7.292 4.203 0 7.031 3.365 7.031 7.292 0 3.926-2.878 7.291-7.07 7.291s-7.024-3.36-7.024-7.291zm12.468 0c0-3.204-2.288-5.819-5.444-5.819s-5.398 2.571-5.398 5.819c0 3.247 2.289 5.822 5.445 5.822 3.155 0 5.397-2.572 5.397-5.822zM236.92 5.95h9.982v1.451h-8.424v4.812h7.538v1.451h-7.538v4.933h8.524v1.451H236.92zM87.937 19.196c0-.18-.036-.367-.064-.532a7.441 7.441 0 0 0-1.031-2.816 7.28 7.28 0 0 0-2.05-2.158 5.145 5.145 0 0 1-1.439.602 6.156 6.156 0 0 1 2.273 2.017 6.325 6.325 0 0 1 1.056 2.88 6.144 6.144 0 0 1-3.318-1.5 6.352 6.352 0 0 1-1.929-3.136c-.58.056-1.157.155-1.723.298a6.252 6.252 0 0 1-1.951 2.954 6.053 6.053 0 0 1-3.216 1.384c.305-2.902 2.069-4.985 5.239-5.51 1.694-.276 2.749-.4 3.925-.834 2.307-.848 3.76-2.975 4.156-5.532.026-.176.047-.367.062-.536V6.67c0-.183.021-.367.021-.558 0-.191 0-.408-.021-.61a8.018 8.018 0 0 0-.598-.022c-.183 0-.36 0-.547.022h-.104c-.187 0-.36.04-.554.074a7.282 7.282 0 0 0-3.308 1.49 7.49 7.49 0 0 0-2.212 2.921 7.486 7.486 0 0 0-2.202-2.899 7.279 7.279 0 0 0-3.872-1.564h-.104c-.18 0-.36-.022-.547-.022-.187 0-.4 0-.597.022a8.53 8.53 0 0 0-.022.61c0 .187 0 .367.022.558V6.8c0 .194.04.385.072.576a7.44 7.44 0 0 0 1.063 2.835 7.275 7.275 0 0 0 2.096 2.154 7.45 7.45 0 0 1 1.44-.62 6.152 6.152 0 0 1-2.331-2.022 6.324 6.324 0 0 1-1.081-2.92 6.056 6.056 0 0 1 3.3 1.457 6.261 6.261 0 0 1 1.928 3.098c.55-.066 1.404-.15 1.749-.246a6.124 6.124 0 0 1 1.94-2.952 5.926 5.926 0 0 1 3.22-1.353c-.482 4.463-3.983 5.312-6.265 5.543-1.914.206-6.286 1.238-7.045 6.27a8.413 8.413 0 0 0-.068.577s-.036.066 0 .107c0 .184-.022.367-.022.558 0 .191 0 .408.022.61.196.015.395.022.597.022.183 0 .36 0 .547-.022h.104c.194 0 .392-.044.583-.077a7.276 7.276 0 0 0 3.277-1.49 7.483 7.483 0 0 0 2.196-2.896 7.488 7.488 0 0 0 2.226 2.91 7.28 7.28 0 0 0 3.866 1.55h.104c.18 0 .36.021.547.021.187 0 .4 0 .598-.022.014-.2.021-.404.021-.61 0-.187 0-.367-.021-.558z"/><path fill="#6e6e6e" d="M80.604 26a12.55 12.55 0 0 1-7.075-2.19 12.946 12.946 0 0 1-4.69-5.835 13.252 13.252 0 0 1-.724-7.511A13.086 13.086 0 0 1 71.6 3.808 12.656 12.656 0 0 1 78.12.25c2.47-.502 5.03-.244 7.357.74a12.795 12.795 0 0 1 5.716 4.788A13.194 13.194 0 0 1 93.339 13a13.153 13.153 0 0 1-3.734 9.188 12.618 12.618 0 0 1-9 3.812zm0-24.703a11.299 11.299 0 0 0-6.365 1.98 11.655 11.655 0 0 0-4.216 5.255 11.93 11.93 0 0 0-.646 6.76 11.78 11.78 0 0 0 3.14 5.989 11.394 11.394 0 0 0 5.87 3.199c2.224.45 4.528.217 6.622-.669a11.518 11.518 0 0 0 5.143-4.31A11.877 11.877 0 0 0 92.082 13a11.842 11.842 0 0 0-3.366-8.276 11.36 11.36 0 0 0-8.112-3.427z"/></svg>